<?xml version="1.0" encoding="UTF-8"?>
<svg version="1.1" xmlns="http://www.w3.org/2000/svg" width="500" height="500">
<path d="M0 0 C0.25394531 1.09699219 0.50789063 2.19398438 0.76953125 3.32421875 C1.11674245 4.77875214 1.46442358 6.23317342 1.8125 7.6875 C1.97814453 8.40873047 2.14378906 9.12996094 2.31445312 9.87304688 C3.32817348 14.0618159 4.52059417 17.39811245 7 21 C0.68669432 25.77763673 -6.55506941 28.08040592 -14.125 30.1875 C-16.87472592 30.7120083 -16.87472592 30.7120083 -18 32 C-10.2756906 33.49502763 -6.05191407 32.15834624 1 29 C11.73831584 24.67261899 21.22810087 23.26146138 32.35546875 27.05078125 C34 28 34 28 35 31 C33.02 31 31.04 31 29 31 C29.79664063 31.19335938 30.59328125 31.38671875 31.4140625 31.5859375 C40.5650598 33.83472273 40.5650598 33.83472273 44.125 35.1875 C48.41662612 36.40035086 52.58837316 36.77807802 57 36 C59.67818983 33.70142894 59.67818983 33.70142894 61 31 C60.34515625 30.91363281 59.6903125 30.82726562 59.015625 30.73828125 C49.8640274 29.32934885 40.383885 27.09320556 34 20 C34.598125 18.906875 35.19625 17.81375 35.8125 16.6875 C38.3425139 11.67249025 39.68049221 6.43797148 41 1 C44.84660979 1.61976061 47.98676975 2.76954539 51.5 4.44140625 C52.54607422 4.93866211 53.59214844 5.43591797 54.66992188 5.94824219 C55.76884766 6.48094727 56.86777344 7.01365234 58 7.5625 C59.12470703 8.10680664 60.24941406 8.65111328 61.40820312 9.21191406 C89.47684104 22.95368207 89.47684104 22.95368207 94 32 C94.3755664 35.4552109 94.57185062 37.27206454 92.3828125 40.05859375 C89.52812464 42.38446238 87.09669375 43.18648558 83.5625 44.1875 C81.89380859 44.67283203 81.89380859 44.67283203 80.19140625 45.16796875 C67.01617294 48.6028827 51.7457157 48.88503966 38.8125 44.4375 C26.21748862 40.12448676 15.99849172 42.82771786 4 48 C1.58750525 49.2420765 -0.68576072 50.57989862 -3 52 C-3.66 52 -4.32 52 -5 52 C-3.48231223 48.11855714 -1.15378041 46.30194438 2.125 43.8125 C3.76468565 42.560672 5.39405542 41.29482986 7 40 C7 39.67 7 39.34 7 39 C5.02463255 39.34786708 5.02463255 39.34786708 3 40 C2.505 40.99 2.505 40.99 2 42 C0.68 41.67 -0.64 41.34 -2 41 C-2 41.99 -2 42.98 -2 44 C-3.6396875 43.9690625 -3.6396875 43.9690625 -5.3125 43.9375 C-8.94384191 43.81455548 -8.94384191 43.81455548 -12 45 C-16.30797595 45.26407208 -20.62231648 45.23158855 -24.9375 45.25 C-26.11119141 45.270625 -27.28488281 45.29125 -28.49414062 45.3125 C-37.53809647 45.35249538 -47.84339871 45.23685711 -55 39 C-56 37.25 -56 37.25 -56 35 C-50.69957682 20.77254831 -30.5053192 13.53325764 -18 7 C-17.24138672 6.5987793 -16.48277344 6.19755859 -15.70117188 5.78417969 C-4.74651857 0 -4.74651857 0 0 0 Z M22 31 C21.67 31.66 21.34 32.32 21 33 C22.32 33 23.64 33 25 33 C25 32.34 25 31.68 25 31 C24.01 31 23.02 31 22 31 Z M11 35 C10.67 35.99 10.34 36.98 10 38 C11.32 37.67 12.64 37.34 14 37 C14 36.34 14 35.68 14 35 C13.01 35 12.02 35 11 35 Z " fill="#595A40" transform="translate(231,263)"/>
<path d="M0 0 C1.8515625 0.015625 1.8515625 0.015625 4 1 C16.322049 15.24876939 22.61466072 32.49100399 22.1875 51.1875 C22.16719727 52.90163086 22.16719727 52.90163086 22.14648438 54.65039062 C22.1115423 57.43410963 22.06249011 60.21678664 22 63 C19.07738155 62.31277225 16.70947908 61.42569962 14.0625 60 C5.76219871 55.78106233 -2.04918785 56.3262973 -10.72265625 59.1328125 C-13.36328249 60.13833398 -15.68505878 61.37954114 -18 63 C-23.07836173 49.38351616 -19.40704405 33.06332925 -13.6640625 20.1328125 C-9.97267936 13.18330716 -5.57959276 5.57959276 0 0 Z " fill="#FCBD5B" transform="translate(250,184)"/>
<path d="M0 0 C1 1 1 1 1.3125 4.625 C1.03622942 20.52311601 -6.6654895 36.3580789 -16.6875 48.375 C-17.13875244 48.91656738 -17.59000488 49.45813477 -18.05493164 50.01611328 C-20.75205445 53.06873221 -22.91424928 55.37414801 -27 56 C-30.0333231 55.09258577 -32.75777572 53.70412315 -35.5625 52.25 C-36.31724609 51.87617188 -37.07199219 51.50234375 -37.84960938 51.1171875 C-39.90839029 50.0941457 -41.95468422 49.04962086 -44 48 C-45.33260822 47.33188508 -46.66573946 46.66480901 -48 46 C-47.10471477 38.45402449 -47.10471477 38.45402449 -46.4765625 35.73046875 C-45.7379227 31.49842594 -45.79043259 27.17464289 -45.83398438 22.8828125 C-45.70825707 18.84429896 -45.20583591 17.21759796 -42.40234375 14.25390625 C-41.29234242 13.46741546 -40.15663008 12.71615471 -39 12 C-38.43837158 11.6479248 -37.87674316 11.29584961 -37.2980957 10.93310547 C-26.53633073 4.59877231 -12.72274607 -0.97305897 0 0 Z " fill="#FDBD5A" transform="translate(323,212)"/>
<path d="M0 0 C15.80075153 0.90908433 33.4824259 5.4824259 45 17 C45.39477539 19.04370117 45.39477539 19.04370117 45.59765625 21.54296875 C45.67693359 22.45240234 45.75621094 23.36183594 45.83789062 24.29882812 C45.91201172 25.25208984 45.98613281 26.20535156 46.0625 27.1875 C46.21854043 29.05611643 46.37606305 30.92460975 46.53515625 32.79296875 C46.64754639 34.12593994 46.64754639 34.12593994 46.76220703 35.48583984 C47.06426737 38.67949221 47.50471315 41.83104074 48 45 C46.98679688 45.47050781 45.97359375 45.94101562 44.9296875 46.42578125 C43.57810425 47.0546429 42.22654291 47.68355166 40.875 48.3125 C40.20984375 48.62123047 39.5446875 48.92996094 38.859375 49.24804688 C38.20195312 49.55419922 37.54453125 49.86035156 36.8671875 50.17578125 C36.21202148 50.47822754 35.55685547 50.78067383 34.88183594 51.09228516 C33.15942158 51.92310205 31.48605923 52.85368405 29.8203125 53.79296875 C26.54032301 55.19673156 25.29578432 55.30648546 22 54 C9.45780965 43.66451459 1.53363078 25.80254247 -1 10 C-1.08672771 8.41849475 -1.13031501 6.83387257 -1.125 5.25 C-1.12757813 4.47140625 -1.13015625 3.6928125 -1.1328125 2.890625 C-1 1 -1 1 0 0 Z " fill="#FCBD5B" transform="translate(180,212)"/>
<path d="M0 0 C4.18593007 2.34412084 6.59316504 4.15449512 8.125 8.75 C8.90302934 17.7292239 8.57084934 27.09979954 2.76953125 34.47265625 C-0.65435784 37.62116552 -4.34369445 39.0345307 -8.875 39.75 C-14.44807003 38.88521327 -17.35534713 37.12578464 -20.875 32.75 C-25.13319609 25.66734388 -26.63857537 18.99378596 -25.875 10.75 C-24.55049578 6.26140237 -23.55604131 4.2891577 -19.875 1.375 C-13.71602993 -1.96110879 -6.60957836 -2.63238619 0 0 Z " fill="#5A5B40" transform="translate(259.875,247.25)"/>
<path d="M0 0 C2.82687811 1.79035614 3.00677603 3.02394196 3.9375 6.3125 C4 10 4 10 2.625 13.375 C-0.54316297 16.54316297 -2.43177327 17.02256585 -6.80859375 17.24609375 C-10.13298239 16.87276668 -11.78806237 15.41930678 -14 13 C-15.56935594 9.86128812 -15.35201103 7.46144178 -15 4 C-10.17795456 -1.99497542 -7.11970255 -2.54275091 0 0 Z " fill="#FCBD58" transform="translate(290,198)"/>
<path d="M0 0 C2.3125 1 2.3125 1 4 3 C4.91002089 6.04123112 5.2500247 8.83302043 5 12 C3.23496686 14.92143417 2.04152365 16.47923817 -1 18 C-5.35192338 18.49267057 -7.29982008 18.51752429 -10.875 15.875 C-13.24329016 12.67084273 -14 10.97209416 -14 7 C-11.26177673 0.45868885 -6.82455209 -2.0328453 0 0 Z " fill="#F9BE5F" transform="translate(223,197)"/>
<path d="M0 0 C0.33 0.66 0.66 1.32 1 2 C-2.625 5 -2.625 5 -6 5 C-5.93993922 6.45947705 -5.8511311 7.91779272 -5.75 9.375 C-5.70359375 10.18710938 -5.6571875 10.99921875 -5.609375 11.8359375 C-5.2077908 14.18838927 -5.2077908 14.18838927 -2.953125 15.2890625 C-2.30859375 15.52367187 -1.6640625 15.75828125 -1 16 C-1 16.66 -1 17.32 -1 18 C-0.01 17.34 0.98 16.68 2 16 C3.65 16 5.3 16 7 16 C7 12.37 7 8.74 7 5 C4.525 4.01 4.525 4.01 2 3 C2 2.34 2 1.68 2 1 C4.57531492 1.34801553 6.54832896 1.70964005 8.75 3.125 C10.73305245 6.09957867 10.93984371 8.45077876 11 12 C9.625 15.375 9.625 15.375 7 18 C3.93584516 19.0727395 1.22519033 19.36218715 -2 19 C-4.92143417 17.23496686 -6.47923817 16.04152365 -8 13 C-8.375 9.6875 -8.375 9.6875 -8 6 C-5.45862841 2.84045695 -3.85377341 1.28459114 0 0 Z " fill="#F2C375" transform="translate(283,196)"/>
<path d="M0 0 C0.66 0.33 1.32 0.66 2 1 C0.35 2.98 -1.3 4.96 -3 7 C-3.99 6.67 -4.98 6.34 -6 6 C-8.8947712 8.21667456 -10.6532706 9.68925567 -11.60009766 13.26855469 C-11.94310112 15.97247103 -12.15566407 18.65399105 -12.3125 21.375 C-12.38533203 22.29539063 -12.45816406 23.21578125 -12.53320312 24.1640625 C-12.90480575 29.1187642 -13.07526206 34.03270424 -13 39 C-13.99 38.67 -14.98 38.34 -16 38 C-15.10471477 30.45402449 -15.10471477 30.45402449 -14.4765625 27.73046875 C-13.7379227 23.49842594 -13.79043259 19.17464289 -13.83398438 14.8828125 C-13.74577706 12.04948653 -13.58467603 9.71137476 -11.74267578 7.47021484 C-10.18359375 6.1484375 -10.18359375 6.1484375 -7 4 C-5.98679687 3.30777344 -5.98679687 3.30777344 -4.953125 2.6015625 C-3.33528677 1.67390297 -1.66804143 0.83402071 0 0 Z " fill="#EEBE76" transform="translate(291,220)"/>
<path d="M0 0 C2.54055845 0.25552438 5.03852505 0.56707159 7.5625 0.9375 C8.27341797 1.03740234 8.98433594 1.13730469 9.71679688 1.24023438 C11.47856957 1.48853791 13.23938152 1.74364039 15 2 C15 2.33 15 2.66 15 3 C12.69 3 10.38 3 8 3 C8 5.31 8 7.62 8 10 C7.34 10 6.68 10 6 10 C5.67 8.02 5.34 6.04 5 4 C4.01 4 3.02 4 2 4 C2 8.95 2 13.9 2 19 C-0.97896727 13.04206546 -1.46353767 7.59859503 -1 1 C-0.67 0.67 -0.34 0.34 0 0 Z " fill="#F6C075" transform="translate(180,212)"/>
<path d="M0 0 C2.31 0.66 4.62 1.32 7 2 C6.67 2.53625 6.34 3.0725 6 3.625 C4.611943 6.49214521 4.611943 6.49214521 5 12 C0.05 10.35 -4.9 8.7 -10 7 C-10 6.67 -10 6.34 -10 6 C-7.36 5.67 -4.72 5.34 -2 5 C-2.33 5.99 -2.66 6.98 -3 8 C-2.34 8 -1.68 8 -1 8 C-0.67 5.36 -0.34 2.72 0 0 Z " fill="#56583D" transform="translate(270,297)"/>
<path d="M0 0 C0.66 0 1.32 0 2 0 C4 2 4 2 5 5 C4.67 5.99 4.34 6.98 4 8 C3.01 8 2.02 8 1 8 C0.67 8.66 0.34 9.32 0 10 C-0.66 9.67 -1.32 9.34 -2 9 C-2 8.34 -2 7.68 -2 7 C-2.99 7 -3.98 7 -5 7 C-5.33 7.99 -5.66 8.98 -6 10 C-6.99 9.67 -7.98 9.34 -9 9 C-8.34 9 -7.68 9 -7 9 C-7.33 7.02 -7.66 5.04 -8 3 C-7.34 2.67 -6.68 2.34 -6 2 C-5.01 2.66 -4.02 3.32 -3 4 C-2.67 3.34 -2.34 2.68 -2 2 C-1.34 2 -0.68 2 0 2 C0 1.34 0 0.68 0 0 Z " fill="#494831" transform="translate(247,291)"/>
<path d="M0 0 C1.010625 0.45375 2.02125 0.9075 3.0625 1.375 C0.6240972 3.8134028 -1.8510688 4.96420371 -4.9375 6.5 C-6.01 7.03882813 -7.0825 7.57765625 -8.1875 8.1328125 C-10.9375 9.375 -10.9375 9.375 -12.9375 9.375 C-10.3331556 3.55651349 -6.66789409 -1.05839589 0 0 Z " fill="#4E5541" transform="translate(238.9375,305.625)"/>
<path d="M0 0 C1.32 0.33 2.64 0.66 4 1 C4 1.99 4 2.98 4 4 C2.35 3.67 0.7 3.34 -1 3 C-1.309375 3.94875 -1.61875 4.8975 -1.9375 5.875 C-3 9 -3 9 -4 11 C-4.66 11 -5.32 11 -6 11 C-6.33 11.99 -6.66 12.98 -7 14 C-7.66 14 -8.32 14 -9 14 C-7.65070536 10.16336928 -5.92248975 7.34827431 -3.375 4.1875 C-2.42753906 3.00220703 -2.42753906 3.00220703 -1.4609375 1.79296875 C-0.97882813 1.20128906 -0.49671875 0.60960937 0 0 Z " fill="#EFC16E" transform="translate(250,184)"/>
<path d="M0 0 C0.33 0 0.66 0 1 0 C1.66 4.29 2.32 8.58 3 13 C0.87959258 14.03033882 -1.24647908 15.04902854 -3.375 16.0625 C-4.55835938 16.63097656 -5.74171875 17.19945312 -6.9609375 17.78515625 C-7.96382812 18.18605469 -8.96671875 18.58695312 -10 19 C-10.66 18.67 -11.32 18.34 -12 18 C-9.78765187 15.45579965 -8.31099418 14.567599 -5 14 C-3.9275 13.814375 -2.855 13.62875 -1.75 13.4375 C-0.8425 13.293125 0.065 13.14875 1 13 C0.835 12.34 0.67 11.68 0.5 11 C-0.12183299 7.26900206 -0.06408926 3.78126622 0 0 Z " fill="#F4C077" transform="translate(225,244)"/>
<path d="M0 0 C12.07116272 0.61307131 12.07116272 0.61307131 16 4 C16 4.66 16 5.32 16 6 C12.26512223 5.5020163 10.18762365 5.12508244 7 3 C6.01 3.495 6.01 3.495 5 4 C4.67 3.34 4.34 2.68 4 2 C1.98330173 0.86649466 1.98330173 0.86649466 0 0 Z " fill="#4A4E38" transform="translate(250,288)"/>
<path d="M0 0 C1.6852084 4.07679159 0.16939007 6.83075593 -1.4375 10.75 C-1.91058594 11.92046875 -2.38367188 13.0909375 -2.87109375 14.296875 C-3.24363281 15.18890625 -3.61617188 16.0809375 -4 17 C-5.078125 15.1484375 -5.078125 15.1484375 -6 13 C-4.75 10.625 -4.75 10.625 -3 8 C-2.29835358 6.01200182 -1.62627128 4.01301483 -1 2 C-0.67 1.34 -0.34 0.68 0 0 Z " fill="#F2C677" transform="translate(321,227)"/>
<path d="M0 0 C-0.33 0.66 -0.66 1.32 -1 2 C-0.34 2 0.32 2 1 2 C1.33 1.34 1.66 0.68 2 0 C2.66 1.32 3.32 2.64 4 4 C4.99 4 5.98 4 7 4 C6.67 4.66 6.34 5.32 6 6 C1.38 4.35 -3.24 2.7 -8 1 C-8 0.67 -8 0.34 -8 0 C-2.25 -1.125 -2.25 -1.125 0 0 Z " fill="#454835" transform="translate(268,303)"/>
<path d="M0 0 C1.28317892 3.84953676 1.06643637 6.94738135 1 11 C0.01 11 -0.98 11 -2 11 C-2.33 13.64 -2.66 16.28 -3 19 C-3.33 19 -3.66 19 -4 19 C-3.59060025 12.23784552 -2.43046191 6.32837252 0 0 Z " fill="#F0C276" transform="translate(235,208)"/>
<path d="M0 0 C0.66 0 1.32 0 2 0 C4 2 4 2 5 5 C3.02 5.66 1.04 6.32 -1 7 C-1.66 6.34 -2.32 5.68 -3 5 C-2.67 4.01 -2.34 3.02 -2 2 C-1.34 2 -0.68 2 0 2 C0 1.34 0 0.68 0 0 Z " fill="#525330" transform="translate(247,291)"/>
<path d="M0 0 C3.4375 1.25 3.4375 1.25 7 3 C7.9375 5.1875 7.9375 5.1875 8 7 C6.35 7.33 4.7 7.66 3 8 C1.92474806 5.34771188 0.90543849 2.71631546 0 0 Z " fill="#F7C173" transform="translate(219,196)"/>
<path d="M0 0 C3.27742098 3.10026309 5.93104837 5.97098894 8 10 C8 10.66 8 11.32 8 12 C7.34 12 6.68 12 6 12 C6 11.01 6 10.02 6 9 C3.525 8.01 3.525 8.01 1 7 C0.67 4.69 0.34 2.38 0 0 Z " fill="#F2C36E" transform="translate(255,188)"/>
<path d="M0 0 C0.33 0.66 0.66 1.32 1 2 C1.66 2.33 2.32 2.66 3 3 C1.68 3.33 0.36 3.66 -1 4 C-1 4.66 -1 5.32 -1 6 C-0.34 6.33 0.32 6.66 1 7 C1.625 9.5625 1.625 9.5625 2 12 C-0.38346353 11.07736896 -1.70891888 10.54335142 -2.9375 8.25 C-3.02882333 4.96236023 -1.59648343 2.80981084 0 0 Z " fill="#51533B" transform="translate(178,292)"/>
<path d="M0 0 C0.99 0.33 1.98 0.66 3 1 C1.69118353 2.66956087 0.37785174 4.33558304 -0.9375 6 C-1.66839844 6.928125 -2.39929688 7.85625 -3.15234375 8.8125 C-3.76207031 9.534375 -4.37179687 10.25625 -5 11 C-5.33 11 -5.66 11 -6 11 C-6 9.35 -6 7.7 -6 6 C-5.01 6 -4.02 6 -3 6 C-3 5.01 -3 4.02 -3 3 C-2.01 3 -1.02 3 0 3 C0 2.01 0 1.02 0 0 Z " fill="#F1C77B" transform="translate(309,252)"/>
<path d="M0 0 C0.33 0.99 0.66 1.98 1 3 C-3.29299643 4.26264601 -5.87831311 3.62950412 -10 2 C-10 1.67 -10 1.34 -10 1 C-6.56484998 0.37542727 -3.50935186 0 0 0 Z " fill="#4E523F" transform="translate(255,283)"/>
<path d="M0 0 C2.64 0.33 5.28 0.66 8 1 C8 1.66 8 2.32 8 3 C9.65 3.33 11.3 3.66 13 4 C13 4.66 13 5.32 13 6 C3.40546697 3.10933941 3.40546697 3.10933941 0 0 Z " fill="#F2C57B" transform="translate(279,259)"/>
<path d="M0 0 C0.33 0 0.66 0 1 0 C1.36630156 3.93774177 1.30233203 5.56539771 -1 8.875 C-1.66 9.57625 -2.32 10.2775 -3 11 C-3.66 10.67 -4.32 10.34 -5 10 C-5 9.01 -5 8.02 -5 7 C-3.68 7 -2.36 7 -1 7 C-0.67 4.69 -0.34 2.38 0 0 Z " fill="#F0C375" transform="translate(227,203)"/>
<path d="M0 0 C3.37462715 0.54723683 5.08235 1.0549 8 3 C6.02 3.33 4.04 3.66 2 4 C1.34 2.68 0.68 1.36 0 0 Z " fill="#4E543E" transform="translate(274,265)"/>
<path d="M0 0 C1.32 0.33 2.64 0.66 4 1 C4 1.99 4 2.98 4 4 C1.69 4 -0.62 4 -3 4 C-2.01 2.68 -1.02 1.36 0 0 Z " fill="#EAC77E" transform="translate(250,184)"/>
<path d="M0 0 C-1.6875 1.625 -1.6875 1.625 -4 3 C-6.75 2.1875 -6.75 2.1875 -9 1 C-9 0.67 -9 0.34 -9 0 C-2.25 -1.125 -2.25 -1.125 0 0 Z " fill="#F4C57C" transform="translate(302,265)"/>
<path d="M0 0 C2.97 0.495 2.97 0.495 6 1 C4.68 2.32 3.36 3.64 2 5 C1.34 4.67 0.68 4.34 0 4 C0 2.68 0 1.36 0 0 Z " fill="#E7BF6E" transform="translate(231,242)"/>
</svg>
